<?xml version="1.0" standalone="no"?>
<!DOCTYPE svg PUBLIC "-//W3C//DTD SVG 20010904//EN"
 "http://www.w3.org/TR/2001/REC-SVG-20010904/DTD/svg10.dtd">
<svg version="1.0" xmlns="http://www.w3.org/2000/svg"
 width="308.000000pt" height="306.000000pt" viewBox="0 0 308.000000 306.000000"
 preserveAspectRatio="xMidYMid meet">

<g transform="translate(0.000000,306.000000) scale(0.100000,-0.100000)"
fill="#000000" stroke="none">
<path d="M1320 2794 c-58 -7 -125 -19 -150 -25 -266 -67 -435 -152 -577 -288
-224 -215 -356 -606 -340 -1010 8 -209 63 -392 198 -667 165 -336 356 -520
619 -597 129 -37 197 -46 410 -53 175 -5 205 -4 295 15 145 31 236 64 392 141
479 237 718 592 740 1095 9 199 -16 306 -122 535 -109 235 -217 392 -365 533
-193 184 -409 290 -665 327 -97 13 -309 11 -435 -6z m150 -467 c0 -7 -16 -32
-36 -55 -39 -46 -38 -57 10 -101 26 -24 35 -51 17 -51 -5 0 -28 23 -52 51 -48
57 -48 55 15 131 33 40 46 47 46 25z m168 -35 c-93 -154 -128 -198 -128 -162
0 12 94 166 118 192 26 30 34 8 10 -30z m142 -43 l19 -26 -45 -51 c-44 -50
-64 -63 -64 -42 0 5 16 27 35 49 19 21 35 42 35 46 0 3 -16 26 -36 50 -21 26
-33 49 -28 56 7 12 33 -14 84 -82z m-310 -274 c0 -13 110 -728 112 -731 2 -1
28 162 59 364 l55 367 157 3 157 3 0 -676 0 -676 -87 3 -88 3 -5 498 -5 499
-74 -474 c-40 -260 -76 -485 -78 -500 -5 -28 -6 -28 -92 -28 l-86 0 -80 517
-80 517 -3 -517 -2 -518 -88 3 -87 3 -3 673 -2 672 160 0 c88 0 160 -2 160 -5z"/>
</g>
</svg>
